<?xml version="1.0" encoding="UTF-8" standalone="no"?>
<!-- Created with Inkscape (http://www.inkscape.org/) -->

<svg
   xmlns:dc="http://purl.org/dc/elements/1.1/"
   xmlns:cc="http://creativecommons.org/ns#"
   xmlns:rdf="http://www.w3.org/1999/02/22-rdf-syntax-ns#"
   xmlns:svg="http://www.w3.org/2000/svg"
   xmlns="http://www.w3.org/2000/svg"
   xmlns:sodipodi="http://sodipodi.sourceforge.net/DTD/sodipodi-0.dtd"
   xmlns:inkscape="http://www.inkscape.org/namespaces/inkscape"
   version="1.0"
   width="431.23001"
   height="431.22552"
   viewBox="0 0 431.23 431.22553"
   id="Layer_1"
   xml:space="preserve"
   inkscape:version="0.48.5 r10040"
   sodipodi:docname="mountie_notify_icon.svg"
   inkscape:export-filename="/home/andrew/Development/Projects/Mountie/img/mountie_notify_icon.png"
   inkscape:export-xdpi="106.86"
   inkscape:export-ydpi="106.86"><metadata
     id="metadata3035"><rdf:RDF><cc:Work
         rdf:about=""><dc:format>image/svg+xml</dc:format><dc:type
           rdf:resource="http://purl.org/dc/dcmitype/StillImage" /><dc:title></dc:title></cc:Work></rdf:RDF></metadata><sodipodi:namedview
     pagecolor="#ffffff"
     bordercolor="#666666"
     borderopacity="1"
     objecttolerance="10"
     gridtolerance="10"
     guidetolerance="10"
     inkscape:pageopacity="0"
     inkscape:pageshadow="2"
     inkscape:window-width="2560"
     inkscape:window-height="1378"
     id="namedview3033"
     showgrid="false"
     fit-margin-top="30"
     fit-margin-left="30"
     fit-margin-right="30"
     fit-margin-bottom="30"
     inkscape:zoom="0.31115334"
     inkscape:cx="131.11176"
     inkscape:cy="-94.764607"
     inkscape:window-x="1920"
     inkscape:window-y="27"
     inkscape:window-maximized="1"
     inkscape:current-layer="Layer_1" /><defs
     id="defs1337" /><path
     sodipodi:type="inkscape:offset"
     inkscape:radius="0"
     inkscape:original="M 284.5625 31.78125 C 283.1008 31.680448 281.39054 31.828211 279.5 32.15625 L 254.15625 32.15625 C 242.68979 61.469645 231.21837 90.7811 219.75 120.09375 C 208.2508 90.780939 196.74529 61.470592 185.25 32.15625 L 150.03125 32.15625 L 150.03125 33.15625 L 150.03125 34.15625 C 150.14184 40.104878 147.89339 48.032147 156.625 46.71875 C 165.4467 45.293068 161.91024 54.271291 162.53125 59.75 L 162.53125 132.4375 C 157.93341 134.35963 147.84916 131.6549 150.03125 139.28125 C 147.84629 147.69537 152.5197 149.25113 160.03125 147.96875 L 194.15625 147.96875 C 192.93657 142.97678 197.58265 133.04715 189.53125 133.8125 C 181.14297 134.87328 180.69187 129.25099 181.65625 122.4375 C 181.9586 103.7903 181.08618 85.162925 180.46875 66.53125 C 190.81281 92.836704 202.15451 118.94849 211.875 145.375 C 211.5411 162.26153 212.52196 179.35211 211.4375 196.125 C 208.70582 205.13645 198.89742 209.67036 193.09375 216.625 C 183.87116 226.8078 170.96481 234.19998 164.875 246.84375 C 159.70819 258.05079 163.10397 271.02989 162.15625 283 C 155.95848 282.8439 148.31128 281.23836 151.03125 290 L 151.03125 320.15625 L 188.1875 320.15625 L 188.1875 283 C 182.06243 283.0821 174.16958 284.9643 177.09375 276.03125 C 177.9166 266.18217 173.81185 253.32562 183.4375 246.5625 L 211.875 219.625 L 211.875 341.03125 C 208.07037 342.32212 194.82295 338.19841 198.21875 343.625 C 205.25659 355.81326 212.32685 367.98718 219.34375 380.1875 C 226.86797 367.1254 234.40563 354.07086 241.96875 341.03125 C 237.31649 339.63142 226.6498 344.24604 226.8125 338.03125 L 226.8125 178.21875 C 237.54532 188.9231 249.50461 198.6096 259.5625 209.875 C 263.87959 218.52256 260.54394 228.79943 261.59375 238.125 C 262.19391 241.45444 261.78615 243.80755 258.53125 244.90625 C 247.84943 251.53447 248.0085 269.04446 258.78125 275.59375 C 269.3957 283.35188 286.09603 275.83502 287.46875 262.84375 C 288.77193 254.77161 284.11422 246.3293 276.59375 243.1875 C 275.52421 228.99143 280.02831 212.78858 271 200.4375 C 262.41623 189.36251 250.71545 180.90655 240.96875 170.78125 C 234.81662 164.70554 224.98773 158.68802 226.9375 148.59375 C 228.64941 138.20134 234.58939 128.72261 237.9375 118.6875 L 259 66.4375 C 258.12353 88.429449 257.57755 110.42682 257.84375 132.4375 C 253.24019 134.36278 243.13313 131.64578 245.3125 139.28125 C 243.12754 147.69537 247.80095 149.25113 255.3125 147.96875 L 289.5 147.96875 C 288.2802 142.97747 292.92691 133.04419 284.875 133.8125 C 276.48757 134.86575 275.99056 129.27328 276.96875 122.4375 L 276.96875 47.75 C 281.57231 45.824721 291.67937 48.541719 289.5 40.90625 C 291.12933 34.589419 288.94759 32.083656 284.5625 31.78125 z "
     style="fill:#000000"
     id="path3147"
     d="m 284.5625,31.78125 c -1.4617,-0.100802 -3.17196,0.04696 -5.0625,0.375 l -25.34375,0 C 242.68979,61.469645 231.21837,90.7811 219.75,120.09375 208.2508,90.780939 196.74529,61.470592 185.25,32.15625 l -35.21875,0 0,1 0,1 c 0.11059,5.948628 -2.13786,13.875897 6.59375,12.5625 8.8217,-1.425682 5.28524,7.552541 5.90625,13.03125 l 0,72.6875 c -4.59784,1.92213 -14.68209,-0.7826 -12.5,6.84375 -2.18496,8.41412 2.48845,9.96988 10,8.6875 l 34.125,0 c -1.21968,-4.99197 3.4264,-14.9216 -4.625,-14.15625 -8.38828,1.06078 -8.83938,-4.56151 -7.875,-11.375 0.30235,-18.6472 -0.57007,-37.274575 -1.1875,-55.90625 10.34406,26.305454 21.68576,52.41724 31.40625,78.84375 -0.3339,16.88653 0.64696,33.97711 -0.4375,50.75 -2.73168,9.01145 -12.54008,13.54536 -18.34375,20.5 -9.22259,10.1828 -22.12894,17.57498 -28.21875,30.21875 -5.16681,11.20704 -1.77103,24.18614 -2.71875,36.15625 -6.19777,-0.1561 -13.84497,-1.76164 -11.125,7 l 0,30.15625 37.15625,0 0,-37.15625 c -6.12507,0.0821 -14.01792,1.9643 -11.09375,-6.96875 0.82285,-9.84908 -3.2819,-22.70563 6.34375,-29.46875 l 28.4375,-26.9375 0,121.40625 c -3.80463,1.29087 -17.05205,-2.83284 -13.65625,2.59375 7.03784,12.18826 14.1081,24.36218 21.125,36.5625 7.52422,-13.0621 15.06188,-26.11664 22.625,-39.15625 -4.65226,-1.39983 -15.31895,3.21479 -15.15625,-3 l 0,-159.8125 c 10.73282,10.70435 22.69211,20.39085 32.75,31.65625 4.31709,8.64756 0.98144,18.92443 2.03125,28.25 0.60016,3.32944 0.1924,5.68255 -3.0625,6.78125 -10.68182,6.62822 -10.52275,24.13821 0.25,30.6875 10.61445,7.75813 27.31478,0.24127 28.6875,-12.75 1.30318,-8.07214 -3.35453,-16.51445 -10.875,-19.65625 -1.06954,-14.19607 3.43456,-30.39892 -5.59375,-42.75 -8.58377,-11.07499 -20.28455,-19.53095 -30.03125,-29.65625 -6.15213,-6.07571 -15.98102,-12.09323 -14.03125,-22.1875 1.71191,-10.39241 7.65189,-19.87114 11,-29.90625 L 259,66.4375 c -0.87647,21.991949 -1.42245,43.98932 -1.15625,66 -4.60356,1.92528 -14.71062,-0.79172 -12.53125,6.84375 -2.18496,8.41412 2.48845,9.96988 10,8.6875 l 34.1875,0 c -1.2198,-4.99128 3.42691,-14.92456 -4.625,-14.15625 -8.38743,1.05325 -8.88444,-4.53922 -7.90625,-11.375 l 0,-74.6875 c 4.60356,-1.925279 14.71062,0.791719 12.53125,-6.84375 1.62933,-6.316831 -0.55241,-8.822594 -4.9375,-9.125 z"
     transform="translate(-4.1504918,9.6440168)" /><g
     id="text3037"
     style="font-size:47.41347504px;font-style:normal;font-variant:normal;font-weight:300;font-stretch:normal;line-height:125%;letter-spacing:0px;word-spacing:0px;fill:#000000;fill-opacity:1;stroke:none;font-family:Roboto;-inkscape-font-specification:Roboto Light"
     transform="matrix(0.86509138,0,0,0.86509138,126.06991,29.088016)" /></svg>